<?xml version="1.0" encoding="utf-8"?>
<!-- Generator: Adobe Illustrator 15.0.0, SVG Export Plug-In . SVG Version: 6.00 Build 0)  -->
<!DOCTYPE svg PUBLIC "-//W3C//DTD SVG 1.1//EN" "http://www.w3.org/Graphics/SVG/1.1/DTD/svg11.dtd">
<svg version="1.1" id="Layer_1" xmlns="http://www.w3.org/2000/svg" xmlns:xlink="http://www.w3.org/1999/xlink" x="0px" y="0px"
	 width="550px" height="550px" viewBox="0 0 550 550" enable-background="new 0 0 550 360" xml:space="preserve">
<g transform="scale(1.4) translate(-40,-40)">
	<g transform="translate(81.6,81.6)">
	<!-- stroke-linecap="round" -->
	<!-- stroke-dasharray="5,5" -->
		<path fill="none" stroke="#D3D3D3" stroke-width="5" stroke-linecap="round" stroke-dasharray="10,10" d="m160,10v150"/>
		<path fill="none" stroke="#D3D3D3" stroke-width="5" stroke-linecap="round" stroke-dasharray="10,10" d="m10,160h150"/>
		<path fill="none" stroke="#D3D3D3" stroke-width="5" stroke-linecap="round" stroke-dasharray="10,10" d="m10,10l150,150"/>
		<path fill="none" stroke="#FFA500" stroke-width="5" d="m10,10h150"/>
		<path fill="none" stroke="#FFA500" stroke-width="5" d="m10,10v150"/>
		<path fill="none" stroke="#FFA500" stroke-width="5" d="m10,160l150,-150"/>
	</g>
	<g transform="translate(231.6,81.6)">
		<path fill="none" stroke="#D3D3D3" stroke-width="5" stroke-linecap="round" stroke-dasharray="10,10" d="m10,10h150"/>
		<path fill="none" stroke="#D3D3D3" stroke-width="5" stroke-linecap="round" stroke-dasharray="10,10" d="m160,10v150"/>
		<path fill="none" stroke="#D3D3D3" stroke-width="5" stroke-linecap="round" stroke-dasharray="10,10" d="m10,10l150,150"/>
		<path fill="none" stroke="#FFA500" stroke-width="5" d="m10,160l150,-150"/>
	</g>
	<g transform="translate(81.6,231.6)">
		<path fill="none" stroke="#D3D3D3" stroke-width="5" stroke-linecap="round" stroke-dasharray="10,10" d="m10,160h150"/>
		<path fill="none" stroke="#D3D3D3" stroke-width="5" stroke-linecap="round" stroke-dasharray="10,10" d="m10,10v150"/>
		<path fill="none" stroke="#D3D3D3" stroke-width="5" stroke-linecap="round" stroke-dasharray="10,10" d="m10,10l150,150"/>
		<path fill="none" stroke="#FFA500" stroke-width="5" d="m10,160l150,-150"/>
	</g>
	<g transform="translate(231.6,231.6)">
		<path fill="none" stroke="#D3D3D3" stroke-width="5" stroke-linecap="round" stroke-dasharray="10,10" d="m10,10h150"/>
		<path fill="none" stroke="#D3D3D3" stroke-width="5" stroke-linecap="round" stroke-dasharray="10,10" d="m10,10v150"/>
		<path fill="none" stroke="#D3D3D3" stroke-width="5" stroke-linecap="round" stroke-dasharray="10,10" d="m10,10l150,150"/>
		<path fill="none" stroke="#FFA500" stroke-width="5" d="m160,10v150"/>
		<path fill="none" stroke="#FFA500" stroke-width="5" d="m10,160h150"/>
		<path fill="none" stroke="#FFA500" stroke-width="5" d="m10,160l150,-150"/>
	</g>

	<g transform="translate(50,50)">
		<g>
			<circle id="s1" fill="#FFFFFF" stroke="#000000" stroke-width="3" cx="41.6" cy="41.6" r="30"/>
		</g>
		<text transform="matrix(0.7143 0 0 0.7143 31.0616 54.2861)" font-family="'Helvetica'" font-size="50.4">1</text>
	</g>

	<g transform="translate(200,50)">
		<g>
			<circle id="s1_1_" fill="#FFFFFF" stroke="#000000" stroke-width="3" cx="41.6" cy="41.6" r="30"/>
		</g>
		<text transform="matrix(0.7143 0 0 0.7143 31.0616 54.2861)" font-family="'Helvetica'" font-size="50.4">2</text>
	</g>

	<g transform="translate(350,50)">
		<g>
			<circle id="s1_2_" fill="#FFFFFF" stroke="#000000" stroke-width="3" cx="41.6" cy="41.6" r="30"/>
		</g>
		<text transform="matrix(0.7143 0 0 0.7143 31.0616 54.2857)" font-family="'Helvetica'" font-size="50.4">3</text>
	</g>

	<g transform="translate(50,200)">
		<g>
			<circle id="s1" fill="#FFFFFF" stroke="#000000" stroke-width="3" cx="41.6" cy="41.6" r="30"/>
		</g>
		<text transform="matrix(0.7143 0 0 0.7143 31.0616 54.2861)" font-family="'Helvetica'" font-size="50.4">4</text>
	</g>

	<g transform="translate(200,200)">
		<g>
			<circle id="s1_1_" fill="#FFFFFF" stroke="#000000" stroke-width="3" cx="41.6" cy="41.6" r="30"/>
		</g>
		<text transform="matrix(0.7143 0 0 0.7143 31.0616 54.2861)" font-family="'Helvetica'" font-size="50.4">5</text>
	</g>

	<g transform="translate(350,200)">
		<g>
			<circle id="s1_2_" fill="#FFFFFF" stroke="#000000" stroke-width="3" cx="41.6" cy="41.6" r="30"/>
		</g>
		<text transform="matrix(0.7143 0 0 0.7143 31.0616 54.2857)" font-family="'Helvetica'" font-size="50.4">6</text>
	</g>

	<g transform="translate(50,350)">
		<g>
			<circle id="s1" fill="#FFFFFF" stroke="#000000" stroke-width="3" cx="41.6" cy="41.6" r="30"/>
		</g>
		<text transform="matrix(0.7143 0 0 0.7143 31.0616 54.2861)" font-family="'Helvetica'" font-size="50.4">7</text>
	</g>

	<g transform="translate(200,350)">
		<g>
			<circle id="s1_1_" fill="#FFFFFF" stroke="#000000" stroke-width="3" cx="41.6" cy="41.6" r="30"/>
		</g>
		<text transform="matrix(0.7143 0 0 0.7143 31.0616 54.2861)" font-family="'Helvetica'" font-size="50.4">8</text>
	</g>

	<g transform="translate(350,350)">
		<g>
			<circle id="s1_2_" fill="#FFFFFF" stroke="#000000" stroke-width="3" cx="41.6" cy="41.6" r="30"/>
		</g>
		<text transform="matrix(0.7143 0 0 0.7143 31.0616 54.2857)" font-family="'Helvetica'" font-size="50.4">9</text>
	</g>
</g>
</svg>
