<?xml version="1.0" encoding="utf-8"?>
<!-- Generator: Adobe Illustrator 10.0, SVG Export Plug-In . SVG Version: 3.0.0 Build 77)  -->
<!DOCTYPE svg PUBLIC "-//W3C//DTD SVG 1.0//EN"    "http://www.w3.org/TR/2001/REC-SVG-20010904/DTD/svg10.dtd" [
	<!ENTITY ns_flows "http://ns.adobe.com/Flows/1.0/">
	<!ENTITY ns_svg "http://www.w3.org/2000/svg">
	<!ENTITY ns_xlink "http://www.w3.org/1999/xlink">
	<!ENTITY st0 "font-family:'Myriad-Roman';">
	<!ENTITY st1 "opacity:0.39;">
	<!ENTITY st2 "fill:none;stroke:#000000;stroke-width:0.5;stroke-linecap:round;stroke-linejoin:round;stroke-miterlimit:10;">
	<!ENTITY st3 "fill:#969595;stroke:#969595;stroke-width:0.86;">
	<!ENTITY st4 "clip-path:url(#XMLID_2_);fill:none;stroke:#000000;stroke-width:7.2;stroke-linecap:round;stroke-linejoin:round;stroke-miterlimit:10;">
	<!ENTITY st5 "fill:none;stroke:#969595;stroke-width:0.86;">
	<!ENTITY st6 "fill:none;stroke:#FFA500;stroke-width:3;">
	<!ENTITY st7 "font-size:14;">
]>
<svg  xmlns="&ns_svg;" xmlns:xlink="&ns_xlink;" xmlns:a="http://ns.adobe.com/AdobeSVGViewerExtensions/3.0/"
	 width="299.52" height="241.92" viewBox="0 0 299.52 241.92" style="overflow:visible;enable-background:new 0 0 299.52 241.92"
	 xml:space="preserve">
	<metadata>
<?xpacket begin='﻿' id='W5M0MpCehiHzreSzNTczkc9d'?><?adobe-xap-filters esc="CR"?>
<rdf:RDF xmlns:rdf='http://www.w3.org/1999/02/22-rdf-syntax-ns#' xmlns:iX='http://ns.adobe.com/iX/1.0/'>

 <rdf:Description about=''
  xmlns:pdf='http://ns.adobe.com/pdf/1.3/'>
  <!-- pdf:CreationDate is aliased -->
  <!-- pdf:ModDate is aliased -->
  <!-- pdf:Creator is aliased -->
 </rdf:Description>

 <rdf:Description about=''
  xmlns:xap='http://ns.adobe.com/xap/1.0/'>
  <xap:CreateDate>2005-07-04T04:59:53Z</xap:CreateDate>
  <xap:ModifyDate>2005-12-31T23:54:10Z</xap:ModifyDate>
  <xap:CreatorTool>Adobe Illustrator 10.0</xap:CreatorTool>
  <xap:MetadataDate>2005-07-03T22:15:15-07:00</xap:MetadataDate>
 </rdf:Description>

</rdf:RDF>                                                                                                                                                                                                                                                                                                                                                                                                                                                                                                                                                                                                                                                                                                                                                                                                                                                                                                                                                                                                                                                                                                                                                                                                                                                                                                                                                                                                                                                                                                                                                                                                                                                                                                                                                                                                                                                                                                                                                                                                                                                                                                                 <?xpacket end='w'?>
			</metadata>
		<g id="Layer_1">
			<path style="&st5;" d="M12.927,150.076l37.334-72.933"/>
			<path style="&st5;" d="M50.01,77.21l-0.75,53.125"/>
			<path style="&st5;" d="M12.927,150.076l109.167,79.884"/>
			<path style="&st5;" d="M122.093,229.96l-72.5-98.5"/>
			<path style="&st5;" d="M49.26,130.335l129.074,4.353"/>
			<path style="&st5;" d="M64.208,102.438l108.159-71.391"/>
			<path style="&st5;" d="M172.367,31.046L50.01,77.21"/>
			<path style="&st5;" d="M173.427,30.626l70.333-0.333"/>
			<path style="&st5;" d="M232.834,13.563l54.259,27.064"/>
			<path style="&st5;" d="M284.093,41.626L122.426,226.96"/>
			<path style="&st5;" d="M285.76,39.293L178.427,133.96"/>
			<path style="&st5;" d="M178.427,133.96l64.1-103.516"/>

			<g style="&st1;">
				<path d="M53.438,198.106c0.266,0.014,0.574,0,0.994-0.057c0.714-0.084,1.386-0.378,1.904-0.882
					c0.602-0.546,1.036-1.344,1.204-2.422h-0.042c-0.504,0.616-1.232,0.979-2.156,0.979c-1.638,0-2.688-1.231-2.688-2.8
					c0-1.708,1.26-3.22,3.122-3.22c1.862,0,3.01,1.498,3.01,3.836c0,2.002-0.672,3.402-1.568,4.284
					c-0.7,0.672-1.666,1.105-2.646,1.218c-0.448,0.056-0.854,0.084-1.134,0.07V198.106z M55.663,190.644
					c-1.036,0-1.778,0.925-1.778,2.213c0,1.134,0.686,1.932,1.75,1.932c0.826,0,1.47-0.406,1.806-0.952
					c0.056-0.112,0.098-0.252,0.098-0.448c0.014-1.567-0.574-2.744-1.862-2.744H55.663z"/>
			</g>
			<g style="&st1;">
				<path d="M89.771,178.772c0.266,0.014,0.574,0,0.994-0.057c0.714-0.084,1.386-0.378,1.904-0.882
					c0.602-0.546,1.036-1.344,1.204-2.422H93.83c-0.504,0.616-1.232,0.979-2.156,0.979c-1.638,0-2.688-1.231-2.688-2.8
					c0-1.708,1.26-3.22,3.122-3.22c1.862,0,3.01,1.498,3.01,3.836c0,2.002-0.672,3.402-1.568,4.284
					c-0.7,0.672-1.666,1.105-2.646,1.218c-0.448,0.056-0.854,0.084-1.134,0.07V178.772z M91.996,171.31
					c-1.036,0-1.778,0.925-1.778,2.213c0,1.134,0.686,1.932,1.75,1.932c0.826,0,1.47-0.406,1.806-0.952
					c0.056-0.112,0.098-0.252,0.098-0.448c0.014-1.567-0.574-2.744-1.862-2.744H91.996z"/>
			</g>
			<g style="&st1;">
				<path d="M217.063,127.675h-0.027l-1.582,0.854l-0.238-0.938l1.988-1.063h1.05v9.1h-1.19V127.675z"/>
				<path d="M224.623,126.373c1.765,0,2.66,1.092,2.66,2.24c0,0.77-0.392,1.609-1.512,2.128v0.042
					c1.134,0.448,1.834,1.26,1.834,2.352c0,1.597-1.358,2.646-3.094,2.646c-1.904,0-3.052-1.12-3.052-2.45
					c0-1.148,0.686-1.974,1.792-2.45v-0.042c-1.022-0.476-1.456-1.26-1.456-2.044c0-1.442,1.218-2.422,2.813-2.422H224.623z
					 M224.554,134.885c1.105,0,1.819-0.686,1.819-1.624c0-1.092-0.77-1.638-2.002-1.987c-1.063,0.308-1.638,1.021-1.638,1.89
					c-0.042,0.91,0.658,1.722,1.806,1.722H224.554z M224.582,127.255c-1.022,0-1.582,0.672-1.582,1.456
					c-0.015,0.91,0.686,1.4,1.735,1.68c0.784-0.266,1.386-0.825,1.386-1.651c0-0.729-0.434-1.484-1.525-1.484H224.582z"/>
			</g>
			<g style="&st1;">
				<path d="M24.584,106.381c-0.252-0.014-0.574,0.014-0.924,0.07c-1.946,0.308-2.954,1.722-3.164,3.234h0.028
					c0.434-0.588,1.204-1.064,2.212-1.064c1.61,0,2.744,1.176,2.744,2.94c0,1.68-1.134,3.22-3.038,3.22
					c-1.932,0-3.206-1.512-3.206-3.878c0-1.792,0.63-3.206,1.54-4.116c0.756-0.742,1.764-1.204,2.912-1.344
					c0.364-0.056,0.672-0.07,0.896-0.07V106.381z M22.47,113.829c1.05,0,1.764-0.882,1.764-2.184c0-1.302-0.742-2.086-1.876-2.086
					c-0.742,0-1.442,0.448-1.778,1.12c-0.07,0.14-0.126,0.308-0.126,0.532c0.014,1.498,0.714,2.618,2.002,2.618H22.47z"/>
			</g>
			<g style="&st1;">
				<path d="M100.437,52.106c0.266,0.014,0.574,0,0.994-0.056c0.714-0.084,1.386-0.378,1.904-0.882
					c0.602-0.546,1.036-1.344,1.204-2.422h-0.042c-0.504,0.616-1.232,0.98-2.156,0.98c-1.638,0-2.688-1.232-2.688-2.8
					c0-1.708,1.26-3.22,3.122-3.22c1.862,0,3.01,1.498,3.01,3.836c0,2.002-0.672,3.402-1.568,4.284
					c-0.7,0.672-1.666,1.106-2.646,1.218c-0.448,0.056-0.854,0.084-1.134,0.07V52.106z M102.663,44.644
					c-1.036,0-1.778,0.924-1.778,2.212c0,1.134,0.686,1.932,1.75,1.932c0.826,0,1.47-0.406,1.806-0.952
					c0.056-0.112,0.098-0.252,0.098-0.448c0.014-1.568-0.574-2.744-1.862-2.744H102.663z"/>
			</g>
			<g style="&st1;">
				<path d="M108.438,145.772c0.266,0.014,0.574,0,0.994-0.057c0.714-0.084,1.386-0.378,1.904-0.882
					c0.602-0.546,1.036-1.344,1.204-2.422h-0.042c-0.504,0.616-1.232,0.979-2.156,0.979c-1.638,0-2.688-1.231-2.688-2.8
					c0-1.708,1.26-3.22,3.122-3.22c1.862,0,3.01,1.498,3.01,3.836c0,2.002-0.672,3.402-1.568,4.284
					c-0.7,0.672-1.666,1.105-2.646,1.218c-0.448,0.056-0.854,0.084-1.134,0.07V145.772z M110.663,138.31
					c-1.036,0-1.778,0.925-1.778,2.213c0,1.134,0.686,1.932,1.75,1.932c0.826,0,1.47-0.406,1.806-0.952
					c0.056-0.112,0.098-0.252,0.098-0.448c0.014-1.567-0.574-2.744-1.862-2.744H110.663z"/>
			</g>
			<g style="&st1;">
				<path d="M120.438,79.106c0.266,0.014,0.574,0,0.994-0.056c0.714-0.084,1.386-0.378,1.904-0.882
					c0.602-0.546,1.036-1.344,1.204-2.422h-0.042c-0.504,0.616-1.232,0.98-2.156,0.98c-1.638,0-2.688-1.232-2.688-2.8
					c0-1.708,1.26-3.22,3.122-3.22c1.862,0,3.01,1.498,3.01,3.836c0,2.002-0.672,3.402-1.568,4.284
					c-0.7,0.672-1.666,1.106-2.646,1.218c-0.448,0.056-0.854,0.084-1.134,0.07V79.106z M122.663,71.645
					c-1.036,0-1.778,0.924-1.778,2.212c0,1.134,0.686,1.932,1.75,1.932c0.826,0,1.47-0.406,1.806-0.952
					c0.056-0.112,0.098-0.252,0.098-0.448c0.014-1.568-0.574-2.744-1.862-2.744H122.663z"/>
			</g>

			<g style="&st1;">
				<path d="M44.198,116.96v-2.478H39.97v-0.798l4.06-5.824h1.33v5.67h1.274v0.952H45.36v2.478H44.198z M44.198,113.53v-3.052
					c0-0.476,0.014-0.952,0.042-1.428h-0.042c-0.28,0.532-0.504,0.924-0.756,1.358l-2.226,3.094v0.028H44.198z"/>
			</g>
			<g style="&st1;">
				<path d="M263.863,22.959v-2.478h-4.228v-0.798l4.06-5.824h1.33v5.67h1.274v0.952h-1.274v2.478H263.863z M263.863,19.529v-3.052
					c0-0.476,0.015-0.952,0.043-1.428h-0.043c-0.279,0.532-0.504,0.924-0.756,1.358l-2.226,3.094v0.028H263.863z"/>
			</g>
			<g style="&st1;">
				<path d="M229.064,70.341h-0.027l-1.582,0.854l-0.238-0.938l1.988-1.064h1.05v9.1h-1.19V70.341z"/>
				<path d="M236.471,78.447c-1.778,0-2.996-1.666-3.024-4.676c0-3.066,1.33-4.732,3.179-4.732c1.903,0,3.01,1.708,3.01,4.606
					c0,3.094-1.162,4.802-3.15,4.802H236.471z M236.526,77.496c1.246,0,1.849-1.47,1.849-3.794c0-2.24-0.561-3.71-1.849-3.71
					c-1.12,0-1.848,1.428-1.848,3.71c-0.028,2.366,0.7,3.794,1.834,3.794H236.526z"/>
			</g>
			<g style="&st1;">
				<path d="M205.154,35.896h-3.472l-0.35,2.31c0.21-0.028,0.405-0.056,0.742-0.056c0.714,0,1.399,0.154,1.96,0.49
					c0.714,0.392,1.302,1.19,1.302,2.366c0,1.778-1.414,3.108-3.388,3.108c-0.994,0-1.82-0.28-2.269-0.56l0.308-0.938
					c0.379,0.224,1.12,0.504,1.961,0.504c1.147,0,2.155-0.756,2.142-1.988c0-1.204-0.798-2.03-2.604-2.03
					c-0.531,0-0.938,0.042-1.273,0.098l0.588-4.34h4.354V35.896z"/>
			</g>
			<g style="&st1;">
				<path d="M203.771,76.772c0.267,0.014,0.574,0,0.994-0.056c0.714-0.084,1.386-0.378,1.904-0.882
					c0.602-0.546,1.036-1.344,1.204-2.422h-0.042c-0.504,0.616-1.232,0.98-2.156,0.98c-1.638,0-2.688-1.232-2.688-2.8
					c0-1.708,1.261-3.22,3.122-3.22c1.862,0,3.011,1.498,3.011,3.836c0,2.002-0.673,3.402-1.568,4.284
					c-0.7,0.672-1.666,1.106-2.646,1.218c-0.447,0.056-0.854,0.084-1.134,0.07V76.772z M205.997,69.311
					c-1.036,0-1.778,0.924-1.778,2.212c0,1.134,0.686,1.932,1.75,1.932c0.826,0,1.47-0.406,1.806-0.952
					c0.057-0.112,0.099-0.252,0.099-0.448c0.014-1.568-0.574-2.744-1.862-2.744H205.997z"/>
			</g>

			<g id="edge-0-9"><text fill="#FFA500" transform="translate(140,178)" font-weight="bold"><tspan x="0" y="0" style="&st0; &st7;">8</tspan></text><path style="&st6;" d="M178.499,134.737l-56.532,93.628"/></g>
			<g id="edge-1-2"><path style="&st6;" d="M12.927,150.076l36.32-18.984"/><text fill="#FFA500" transform="translate(032,154)" font-weight="bold"><tspan x="0" y="0" style="&st0; &st7;">3</tspan></text></g>
			<g id="edge-2-3"><path style="&st6;" d="M64.602,101.139L50.724,131"/><text id="edge-2-3-w" fill="#FFA500" transform="translate(062,124)" font-weight="bold"><tspan x="0" y="0" style="&st0; &st7;">2</tspan></text></g>
			<g id="edge-3-4"><path style="&st6;" d="M64.355,102.402L51.732,77.545"/><text fill="#FFA500" transform="translate(062,088)" font-weight="bold"><tspan x="0" y="0" style="&st0; &st7;">2</tspan></text></g>
			<g id="edge-3-9"><path style="&st6;" d="M64.355,102.402l114.144,32.335"/><text fill="#FFA500" transform="translate(120,112)" font-weight="bold"><tspan x="0" y="0" style="&st0; &st7;">8</tspan></text></g>
			<g id="edge-5-6"><path style="&st6;" d="M173.254,31.868l59.658-18.313"/><text fill="#FFA500" transform="translate(196,016)" font-weight="bold"><tspan x="0" y="0" style="&st0; &st7;">4</tspan></text></g>
			<g id="edge-5-9"><path style="&st6;" d="M178.499,134.737l-5.245-102.869"/><text fill="#FFA500" transform="translate(162,090)" font-weight="bold"><tspan x="0" y="0" style="&st0; &st7;">7</tspan></text></g>
			<g id="edge-6-7"><path style="&st6;" d="M232.314,12.565l10.584,19.445"/><text fill="#FFA500" transform="translate(224,032)" font-weight="bold"><tspan x="0" y="0" style="&st0; &st7;">1</tspan></text></g>
			<g id="edge-7-8"><path style="&st6;" d="M243.078,31.271l42.828,9.493"/><text fill="#FFA500" transform="translate(255,050)" font-weight="bold"><tspan x="0" y="0" style="&st0; &st7;">3</tspan></text></g>
			
			
			<g id="vertex-0" transform="translate(122,228)"><circle fill="#FFFFFF" stroke="#FFA500" stroke-width="2" r="8"/><text transform="translate(-3.5,4.5)" font-family="'Helvetica'" font-size="12" font-weight="bold">0</text></g>
			<g id="vertex-1" transform="translate(012,148)"><circle fill="#FFFFFF" stroke="#FFA500" stroke-width="2" r="8"/><text transform="translate(-3.6,4.5)" font-family="'Helvetica'" font-size="12" font-weight="bold">1</text></g>
			<g id="vertex-2" transform="translate(049,130)"><circle fill="#FFFFFF" stroke="#FFA500" stroke-width="2" r="8"/><text transform="translate(-3.5,4.5)" font-family="'Helvetica'" font-size="12" font-weight="bold">2</text></g>
			<g id="vertex-3" transform="translate(064,100)"><circle fill="#FFFFFF" stroke="#FFA500" stroke-width="2" r="8"/><text transform="translate(-3.5,4.5)" font-family="'Helvetica'" font-size="12" font-weight="bold">3</text></g>
			<g id="vertex-4" transform="translate(49,77)">
				<circle fill="#FFFFFF" stroke="#FFA500" stroke-width="2" r="8"/>
				<text transform="translate(-3.5,4.5)" font-family="'Helvetica'" font-size="12" font-weight="bold">
					4
				</text>
			</g>

			<g transform="translate(172,32)">
				<circle fill="#FFFFFF" stroke="#FFA500" stroke-width="2" r="8"/>
				<text transform="translate(-3.5,4.5)" font-family="'Helvetica'" font-size="12" font-weight="bold">
					5
				</text>
			</g>

			<g transform="translate(232,10)">
				<circle fill="#FFFFFF" stroke="#FFA500" stroke-width="2" r="8"/>
				<text transform="translate(-3.5,4.5)" font-family="'Helvetica'" font-size="12" font-weight="bold">
					6
				</text>
			</g>

			<g transform="translate(244,32)">
				<circle fill="#FFFFFF" stroke="#FFA500" stroke-width="2" r="8"/>
				<text transform="translate(-3.5,4.5)" font-family="'Helvetica'" font-size="12" font-weight="bold">
					7
				</text>
			</g>

			<g transform="translate(288,40)">
				<circle fill="#FFFFFF" stroke="#FFA500" stroke-width="2" r="8"/>
				<text transform="translate(-3.5,4.5)" font-family="'Helvetica'" font-size="12" font-weight="bold">
					8
				</text>
			</g>

			<g transform="translate(178,134)">
				<circle fill="#FFFFFF" stroke="#FFA500" stroke-width="2" r="8"/>
				<text transform="translate(-3.5,4.5)" font-family="'Helvetica'" font-size="12" font-weight="bold">
					9
				</text>
			</g>
		
		</g>
	</svg>
